HIERARCHY
ROOT mixamorig:Hips
{
	OFFSET 0.000000 201.639420 0.000000
	CHANNELS 6 Xposition Yposition Zposition Xrotation Yrotation Zrotation
	JOINT mixamorig:Spine
	{
		OFFSET 0.006200 19.524994 -2.481800
		CHANNELS 3 Xrotation Yrotation Zrotation
		JOINT mixamorig:Spine1
		{
			OFFSET -0.000900 22.835007 -2.825400
			CHANNELS 3 Xrotation Yrotation Zrotation
			JOINT mixamorig:Spine2
			{
				OFFSET -0.020600 26.552490 -3.193300
				CHANNELS 3 Xrotation Yrotation Zrotation
				JOINT mixamorig:Neck
				{
					OFFSET -0.060000 30.701813 1.352200
					CHANNELS 3 Xrotation Yrotation Zrotation
					JOINT mixamorig:Head
					{
						OFFSET -0.087200 22.547607 3.670900
						CHANNELS 3 Xrotation Yrotation Zrotation
						JOINT mixamorig:HeadTop_End
						{
							OFFSET -0.830600 40.355194 7.893500
							CHANNELS 3 Xrotation Yrotation Zrotation
							End Site
							{
								OFFSET 0.000000 30.592346 0.000000
							}
						}
						JOINT mixamorig:RightEye
						{
							OFFSET -6.302100 18.118591 16.197100
							CHANNELS 3 Xrotation Yrotation Zrotation
							End Site
							{
								OFFSET 0.000000 30.592346 0.000000
							}
						}
						JOINT mixamorig:LeftEye
						{
							OFFSET 6.741500 18.382690 16.401899
							CHANNELS 3 Xrotation Yrotation Zrotation
							End Site
							{
								OFFSET 0.000000 30.592346 0.000000
							}
						}
					}
				}
				JOINT mixamorig:LeftShoulder
				{
					OFFSET 11.924900 18.230499 1.425400
					CHANNELS 3 Xrotation Yrotation Zrotation
					JOINT mixamorig:LeftArm
					{
						OFFSET 25.435989 -0.697632 -5.229300
						CHANNELS 3 Xrotation Yrotation Zrotation
						JOINT mixamorig:LeftForeArm
						{
							OFFSET 54.684776 0.000000 0.000000
							CHANNELS 3 Xrotation Yrotation Zrotation
							JOINT mixamorig:LeftHand
							{
								OFFSET 55.098175 0.000000 0.000000
								CHANNELS 3 Xrotation Yrotation Zrotation
								JOINT mixamorig:LeftHandMiddle1
								{
									OFFSET 23.369751 0.000000 0.000000
									CHANNELS 3 Xrotation Yrotation Zrotation
									JOINT mixamorig:LeftHandMiddle2
									{
										OFFSET 6.378677 0.000000 0.000000
										CHANNELS 3 Xrotation Yrotation Zrotation
										JOINT mixamorig:LeftHandMiddle3
										{
											OFFSET 6.148331 0.000000 0.000000
											CHANNELS 3 Xrotation Yrotation Zrotation
											JOINT mixamorig:LeftHandMiddle4
											{
												OFFSET 6.582504 0.000000 0.000000
												CHANNELS 3 Xrotation Yrotation Zrotation
												End Site
												{
													OFFSET -1.168900 6.395691 1.028606
												}
											}
										}
									}
								}
								JOINT mixamorig:LeftHandThumb1
								{
									OFFSET 7.235672 -3.848206 5.434273
									CHANNELS 3 Xrotation Yrotation Zrotation
									JOINT mixamorig:LeftHandThumb2
									{
										OFFSET 6.568451 -3.792297 3.792300
										CHANNELS 3 Xrotation Yrotation Zrotation
										JOINT mixamorig:LeftHandThumb3
										{
											OFFSET 6.063080 -3.500519 3.500518
											CHANNELS 3 Xrotation Yrotation Zrotation
											JOINT mixamorig:LeftHandThumb4
											{
												OFFSET 4.793182 -2.767334 2.767349
												CHANNELS 3 Xrotation Yrotation Zrotation
												End Site
												{
													OFFSET 0.101639 6.054260 1.275483
												}
											}
										}
									}
								}
								JOINT mixamorig:LeftHandIndex1
								{
									OFFSET 23.101074 -0.309540 4.992809
									CHANNELS 3 Xrotation Yrotation Zrotation
									JOINT mixamorig:LeftHandIndex2
									{
										OFFSET 6.226883 0.000000 0.000000
										CHANNELS 3 Xrotation Yrotation Zrotation
										JOINT mixamorig:LeftHandIndex3
										{
											OFFSET 6.094330 0.000000 0.000000
											CHANNELS 3 Xrotation Yrotation Zrotation
											JOINT mixamorig:LeftHandIndex4
											{
												OFFSET 5.482605 0.000000 0.000000
												CHANNELS 3 Xrotation Yrotation Zrotation
												End Site
												{
													OFFSET -1.427902 5.233032 0.797164
												}
											}
										}
									}
								}
								JOINT mixamorig:LeftHandRing1
								{
									OFFSET 22.299240 0.021149 -3.964172
									CHANNELS 3 Xrotation Yrotation Zrotation
									JOINT mixamorig:LeftHandRing2
									{
										OFFSET 6.321869 0.000000 0.000000
										CHANNELS 3 Xrotation Yrotation Zrotation
										JOINT mixamorig:LeftHandRing3
										{
											OFFSET 5.899796 0.000000 0.000000
											CHANNELS 3 Xrotation Yrotation Zrotation
											JOINT mixamorig:LeftHandRing4
											{
												OFFSET 6.517899 0.000000 0.000000
												CHANNELS 3 Xrotation Yrotation Zrotation
												End Site
												{
													OFFSET -1.637299 6.232208 0.980890
												}
											}
										}
									}
								}
								JOINT mixamorig:LeftHandPinky1
								{
									OFFSET 20.463791 -0.302338 -8.562233
									CHANNELS 3 Xrotation Yrotation Zrotation
									JOINT mixamorig:LeftHandPinky2
									{
										OFFSET 6.908646 0.000000 0.000000
										CHANNELS 3 Xrotation Yrotation Zrotation
										JOINT mixamorig:LeftHandPinky3
										{
											OFFSET 4.622849 0.000000 0.000000
											CHANNELS 3 Xrotation Yrotation Zrotation
											JOINT mixamorig:LeftHandPinky4
											{
												OFFSET 5.216080 0.000000 0.000000
												CHANNELS 3 Xrotation Yrotation Zrotation
												End Site
												{
													OFFSET -0.606308 5.116241 0.814926
												}
											}
										}
									}
								}
							}
						}
					}
				}
				JOINT mixamorig:RightShoulder
				{
					OFFSET -12.001300 18.284088 1.348900
					CHANNELS 3 Xrotation Yrotation Zrotation
					JOINT mixamorig:RightArm
					{
						OFFSET -25.308500 -0.751312 -5.164599
						CHANNELS 3 Xrotation Yrotation Zrotation
						JOINT mixamorig:RightForeArm
						{
							OFFSET -54.684429 0.000000 0.000000
							CHANNELS 3 Xrotation Yrotation Zrotation
							JOINT mixamorig:RightHand
							{
								OFFSET -55.150291 0.000000 0.000000
								CHANNELS 3 Xrotation Yrotation Zrotation
								JOINT mixamorig:RightHandMiddle1
								{
									OFFSET -23.317566 0.000000 0.000000
									CHANNELS 3 Xrotation Yrotation Zrotation
									JOINT mixamorig:RightHandMiddle2
									{
										OFFSET -6.378403 0.000000 0.000000
										CHANNELS 3 Xrotation Yrotation Zrotation
										JOINT mixamorig:RightHandMiddle3
										{
											OFFSET -6.148193 0.000000 0.000000
											CHANNELS 3 Xrotation Yrotation Zrotation
											JOINT mixamorig:RightHandMiddle4
											{
												OFFSET -6.583389 0.000000 0.000000
												CHANNELS 3 Xrotation Yrotation Zrotation
												End Site
												{
													OFFSET 1.171692 6.395905 1.029786
												}
											}
										}
									}
								}
								JOINT mixamorig:RightHandThumb1
								{
									OFFSET -7.190521 -3.860474 5.435846
									CHANNELS 3 Xrotation Yrotation Zrotation
									JOINT mixamorig:RightHandThumb2
									{
										OFFSET -6.567429 -3.791718 3.791708
										CHANNELS 3 Xrotation Yrotation Zrotation
										JOINT mixamorig:RightHandThumb3
										{
											OFFSET -6.062469 -3.500153 3.500166
											CHANNELS 3 Xrotation Yrotation Zrotation
											JOINT mixamorig:RightHandThumb4
											{
												OFFSET -4.792618 -2.767029 2.767022
												CHANNELS 3 Xrotation Yrotation Zrotation
												End Site
												{
													OFFSET -0.100327 6.053253 1.276754
												}
											}
										}
									}
								}
								JOINT mixamorig:RightHandIndex1
								{
									OFFSET -23.048981 -0.310791 4.992554
									CHANNELS 3 Xrotation Yrotation Zrotation
									JOINT mixamorig:RightHandIndex2
									{
										OFFSET -6.227539 0.000000 0.000000
										CHANNELS 3 Xrotation Yrotation Zrotation
										JOINT mixamorig:RightHandIndex3
										{
											OFFSET -6.095047 0.000000 0.000000
											CHANNELS 3 Xrotation Yrotation Zrotation
											JOINT mixamorig:RightHandIndex4
											{
												OFFSET -5.484772 0.000000 0.000000
												CHANNELS 3 Xrotation Yrotation Zrotation
												End Site
												{
													OFFSET 1.420593 5.237305 0.797056
												}
											}
										}
									}
								}
								JOINT mixamorig:RightHandRing1
								{
									OFFSET -22.246323 0.020569 -3.963762
									CHANNELS 3 Xrotation Yrotation Zrotation
									JOINT mixamorig:RightHandRing2
									{
										OFFSET -6.322128 0.000000 0.000000
										CHANNELS 3 Xrotation Yrotation Zrotation
										JOINT mixamorig:RightHandRing3
										{
											OFFSET -5.900024 0.000000 0.000000
											CHANNELS 3 Xrotation Yrotation Zrotation
											JOINT mixamorig:RightHandRing4
											{
												OFFSET -6.518356 0.000000 0.000000
												CHANNELS 3 Xrotation Yrotation Zrotation
												End Site
												{
													OFFSET 1.636398 6.232697 0.982186
												}
											}
										}
									}
								}
								JOINT mixamorig:RightHandPinky1
								{
									OFFSET -20.411011 -0.303314 -8.561701
									CHANNELS 3 Xrotation Yrotation Zrotation
									JOINT mixamorig:RightHandPinky2
									{
										OFFSET -6.907349 0.000000 0.000000
										CHANNELS 3 Xrotation Yrotation Zrotation
										JOINT mixamorig:RightHandPinky3
										{
											OFFSET -4.623840 0.000000 0.000000
											CHANNELS 3 Xrotation Yrotation Zrotation
											JOINT mixamorig:RightHandPinky4
											{
												OFFSET -5.218353 0.000000 0.000000
												CHANNELS 3 Xrotation Yrotation Zrotation
												End Site
												{
													OFFSET 0.602097 5.118835 0.816273
												}
											}
										}
									}
								}
							}
						}
					}
				}
			}
		}
	}
	JOINT mixamorig:LeftUpLeg
	{
		OFFSET 18.168400 -13.561905 -0.039000
		CHANNELS 3 Xrotation Yrotation Zrotation
		JOINT mixamorig:LeftLeg
		{
			OFFSET 0.577358 -80.825211 -3.695000
			CHANNELS 3 Xrotation Yrotation Zrotation
			JOINT mixamorig:LeftFoot
			{
				OFFSET -0.577356 -83.370262 -6.520700
				CHANNELS 3 Xrotation Yrotation Zrotation
				JOINT mixamorig:LeftToeBase
				{
					OFFSET 0.750401 -20.798306 25.135401
					CHANNELS 3 Xrotation Yrotation Zrotation
					JOINT mixamorig:LeftToe_End
					{
						OFFSET -0.000500 0.001200 19.917799
						CHANNELS 3 Xrotation Yrotation Zrotation
						End Site
						{
							OFFSET 0.000000 19.917805 0.000000
						}
					}
				}
			}
		}
	}
	JOINT mixamorig:RightUpLeg
	{
		OFFSET -18.162500 -13.585098 -0.041000
		CHANNELS 3 Xrotation Yrotation Zrotation
		JOINT mixamorig:RightLeg
		{
			OFFSET -0.595024 -80.945297 -3.631900
			CHANNELS 3 Xrotation Yrotation Zrotation
			JOINT mixamorig:RightFoot
			{
				OFFSET 0.595024 -83.218193 -6.561200
				CHANNELS 3 Xrotation Yrotation Zrotation
				JOINT mixamorig:RightToeBase
				{
					OFFSET -0.753601 -20.807106 25.115000
					CHANNELS 3 Xrotation Yrotation Zrotation
					JOINT mixamorig:RightToe_End
					{
						OFFSET 0.000299 0.001700 19.918200
						CHANNELS 3 Xrotation Yrotation Zrotation
						End Site
						{
							OFFSET 0.000000 19.918203 0.000000
						}
					}
				}
			}
		}
	}
}
MOTION
Frames: 4
Frame Time: 0.033333
-14.851604 103.733376 -1.159897 69.195560 33.331265 4.300242 22.472024 -10.015958 -6.033813 11.220049 -4.138034 -3.711281 11.158349 -4.242847 -3.763297 1.008749 -2.031628 13.505383 12.977931 9.672703 20.606238 -0.000002 0.000000 -0.000000 -0.000002 0.000000 -0.000000 -0.000002 0.000000 -0.000000 -2.520172 4.128592 34.923341 -35.150240 -53.702291 -31.375765 0.000065 -67.523646 0.000051 -10.609803 37.271731 60.677577 -1.495624 0.142460 34.022026 -0.000001 -0.000003 -0.000006 0.012665 -0.418169 3.467194 -0.000000 0.000000 0.000002 -18.792707 9.635788 43.129100 1.268567 -0.253713 -0.978376 -1.933879 -0.800257 2.900502 0.000001 -0.000001 0.000001 -1.454811 -0.910791 41.236195 -0.000005 0.000012 -0.000005 0.012788 -0.420131 3.483360 0.000000 0.000000 0.000000 -1.385111 1.345056 25.757881 0.000285 0.061191 -0.507117 0.000799 -0.105613 0.875071 -0.000000 -0.000000 0.000002 -2.081414 6.745042 15.791083 -0.017923 -4.038912 -0.638331 0.000027 -0.021346 0.176964 -0.000001 -0.000001 0.000001 -1.374132 -13.218630 -3.755472 -28.626861 25.461009 50.373888 0.000062 77.526834 -0.000052 3.402404 -23.896660 -50.900848 1.228305 4.415325 -53.433427 0.041854 -0.763327 6.276680 -0.028222 0.137073 -1.120331 0.000002 -0.000000 -0.000000 -11.331163 10.666374 -34.549071 9.458522 -23.332135 -2.571504 -0.614616 -1.256641 -2.231306 -0.000001 0.000003 -0.000001 1.547164 4.817574 -57.817449 0.128586 -1.333713 11.013576 0.000270 0.061228 -0.502508 0.000001 0.000000 0.000000 0.888543 3.944954 -48.982531 0.000449 -0.079038 0.648693 -1.172828 -0.006924 0.048406 0.000000 0.000000 0.000000 0.483426 3.253961 -42.859468 0.000001 -0.000004 0.000011 0.000002 -0.003937 0.032280 0.000000 0.000001 -0.000001 -135.124405 24.172787 31.937080 109.958976 -10.076446 -5.510337 -32.865812 -9.314674 -12.523298 -11.875644 0.000004 -0.000001 0.000001 0.000002 0.000001 -17.803617 -10.814333 -15.783126 28.569003 -6.612259 -7.018273 41.870132 12.342658 1.647827 -17.649204 0.834867 9.036526 0.000002 0.000001 0.000000 
-14.251595 104.577454 -1.459290 68.790530 32.389211 4.554157 22.526217 -10.046233 -5.923321 11.244526 -4.104877 -3.669405 11.183200 -4.210699 -3.721502 1.405021 -2.003160 13.364131 13.679731 9.724079 20.701115 -0.000001 0.000001 0.000000 -0.000001 0.000001 0.000000 -0.000001 0.000001 0.000000 -2.398845 3.928602 34.523256 -34.068482 -52.940824 -30.671255 -0.000016 -67.638633 -0.000002 -11.121442 36.991837 60.614657 -1.496643 0.057137 34.601656 -0.000005 0.000019 0.000007 0.012534 -0.416034 3.449318 -0.000001 -0.000001 0.000000 -18.848662 9.388769 43.279357 1.263258 -0.261196 -0.943061 -1.873967 -0.708486 2.866441 -0.000001 -0.000000 -0.000000 -1.448282 -0.968942 41.633343 -0.000003 -0.000008 -0.000011 0.012716 -0.419130 3.475258 -0.000001 0.000000 -0.000000 -1.385945 1.340452 25.790680 0.000000 0.004883 -0.040449 0.002905 -0.200315 1.660063 -0.000003 0.000000 0.000002 -2.198017 6.587198 16.794694 -0.018031 -4.048692 -0.557169 0.000069 -0.026829 0.222132 -0.000002 -0.000002 0.000002 -1.484005 -13.350641 -4.366197 -29.087334 27.649734 49.786417 -0.000043 76.117657 0.000034 2.006994 -23.951185 -51.735845 1.163273 4.329394 -52.574883 0.033832 -0.686546 5.642770 0.007318 0.167845 -1.378447 0.000001 -0.000000 0.000001 -11.198818 11.132970 -34.445761 9.655870 -23.941727 -2.640303 -0.563327 -1.368051 -2.244870 0.000001 -0.000000 -0.000000 1.475558 4.735175 -56.937888 0.109415 -1.231109 10.156774 0.000531 0.086141 -0.706821 0.000001 -0.000000 -0.000001 0.835822 3.862273 -48.201656 0.000131 -0.041917 0.344019 -1.192428 0.040862 -0.285678 0.000001 -0.000000 0.000002 0.444991 3.175283 -42.156771 -0.000000 -0.000004 0.000012 0.000149 0.046106 -0.378422 0.000000 0.000000 0.000000 -136.662236 24.887691 32.074538 108.196289 -10.192915 -5.921112 -31.861904 -8.152132 -6.393715 -13.836732 0.000028 -0.000001 0.000000 0.000002 0.000001 -17.903855 -10.057982 -15.765463 28.850282 -6.112714 -7.012292 42.112604 11.404641 2.440931 -17.296085 0.660322 7.990538 -0.000000 0.000001 -0.000000 
-13.563212 105.075775 -1.538513 68.287371 31.314891 4.908092 22.390026 -10.114831 -5.828552 11.187564 -4.141683 -3.634398 11.124620 -4.248507 -3.689009 1.767452 -2.037450 13.387421 14.122000 9.533757 20.531248 -0.000002 0.000000 -0.000000 -0.000002 0.000000 -0.000000 -0.000002 0.000000 -0.000000 -2.346662 3.898473 34.104446 -32.720981 -52.483320 -30.200491 -0.000031 -67.123650 -0.000026 -11.962235 36.059724 60.521316 -1.496523 -0.053236 35.349470 -0.000007 0.000004 -0.000003 0.012346 -0.412811 3.422736 0.000001 -0.000001 0.000000 -18.639911 8.456113 43.219671 1.240156 -0.204148 -0.942212 -1.705401 -0.421962 2.806811 0.000003 0.000004 -0.000000 -1.434740 -1.078101 42.377519 0.000007 0.000010 -0.000006 0.012421 -0.414391 3.435901 0.000001 0.000001 -0.000000 -1.399843 1.251733 26.401787 0.000008 -0.000019 0.000005 0.003139 -0.208491 1.727864 -0.000001 0.000002 -0.000002 -2.253897 6.509963 17.283244 -0.018104 -4.055911 -0.497159 0.000245 -0.058191 0.482189 -0.000001 -0.000003 0.000002 -1.598692 -13.385631 -5.095796 -29.800505 30.313974 49.570740 -0.000029 74.194719 0.000045 0.689631 -23.963157 -52.578834 1.120976 4.270883 -51.980629 0.029355 -0.639596 5.255690 -0.092434 0.188767 -1.527952 0.000001 -0.000000 -0.000000 -10.997762 11.847029 -34.151082 9.925906 -24.772422 -2.728677 -0.485007 -1.539533 -2.266838 0.000001 0.000000 -0.000000 1.429150 4.679383 -56.335096 0.098189 -1.166753 9.620577 0.000695 0.098358 -0.807063 -0.000000 -0.000001 -0.000001 0.800196 3.803717 -47.637848 0.000027 -0.020554 0.168465 -1.303018 0.073274 -0.504921 -0.000000 0.000000 0.000000 0.417810 3.116819 -41.623948 -0.000000 -0.000003 0.000011 0.000470 0.081273 -0.666784 0.000000 0.000000 0.000001 -136.882783 24.023534 32.202597 107.899640 -10.972269 -6.021176 -31.328913 -6.666689 -5.723021 -15.210597 -0.000005 0.000011 -0.000001 -0.000002 0.000000 -17.667010 -9.598544 -15.989741 28.917249 -5.035693 -6.445459 42.006152 9.583644 2.916997 -16.284691 0.475258 6.723955 0.000003 -0.000000 -0.000000 
-12.929094 105.626427 -1.552246 67.714755 30.522661 5.420646 22.234530 -10.347788 -5.712786 11.125273 -4.256416 -3.606650 11.058233 -4.365661 -3.666291 2.040183 -2.160298 13.642828 14.313910 9.104028 19.926881 -0.000002 -0.000000 -0.000000 -0.000002 -0.000000 -0.000000 -0.000002 -0.000000 -0.000000 -2.292766 3.798687 33.741189 -31.337239 -52.034720 -29.738159 -0.000052 -66.297901 -0.000064 -12.975893 34.764092 60.303303 -1.494002 -0.197863 36.328048 -0.000005 0.000011 -0.000002 0.012051 -0.408067 3.383423 0.000001 0.000002 -0.000000 -18.061184 6.631759 42.850981 1.811343 1.381943 -0.600677 -1.439158 0.047247 2.735673 0.000002 0.000001 0.000001 -1.411415 -1.242733 43.501448 0.000009 -0.000009 -0.000001 0.011882 -0.405240 3.359764 -0.000000 -0.000001 -0.000001 -1.428388 1.044008 27.826889 0.000210 0.053985 -0.447342 0.001027 -0.119251 0.988072 0.000000 0.000001 -0.000003 -2.280605 6.473214 17.517554 -0.018104 -4.056759 -0.490391 0.000777 -0.103356 0.856494 -0.000001 -0.000000 -0.000001 -1.744795 -13.392130 -6.096696 -31.127395 32.695781 50.350498 -0.000107 71.915137 0.000098 -0.147576 -23.774562 -53.181373 1.108773 4.251912 -51.764491 0.028408 -0.629201 5.170143 -0.315796 0.197647 -1.550223 0.000000 0.000001 0.000001 -10.741510 12.825891 -33.721429 10.274536 -25.844031 -2.837204 -0.377662 -1.776078 -2.298151 0.000000 -0.000001 -0.000001 1.418570 4.664755 -56.154516 0.095521 -1.150903 9.488384 0.000654 0.095869 -0.786734 0.000001 0.000000 -0.000001 0.785948 3.778117 -47.370859 0.000023 -0.017275 0.141812 -1.487107 0.087156 -0.587569 -0.000000 -0.000000 0.000000 0.403587 3.083915 -41.307809 -0.000002 -0.000003 0.000012 0.000695 0.098434 -0.807755 -0.000002 -0.000001 0.000000 -136.190898 23.547463 31.527825 107.897639 -11.104995 -5.918887 -31.861849 -5.396976 -5.688693 -15.145449 0.000004 0.000000 0.000001 0.000002 0.000001 -17.428753 -9.679298 -16.388291 28.853622 -3.697371 -6.044859 41.864220 7.578287 2.925583 -14.819432 0.325403 5.518121 0.000001 0.000001 -0.000002 
